<svg width="14" height="9" viewBox="0 0 14 9" fill="none" xmlns="http://www.w3.org/2000/svg">
<path d="M8.05421 7.76955L13.7042 2.32513C13.7979 2.23571 13.8723 2.12932 13.9231 2.01211C13.9739 1.89489 14 1.76916 14 1.64218C14 1.51519 13.9739 1.38947 13.9231 1.27225C13.8723 1.15503 13.7979 1.04864 13.7042 0.959221C13.5168 0.780064 13.2634 0.679504 12.9992 0.679504C12.735 0.679504 12.4816 0.780064 12.2942 0.959221L7.29421 5.72068L2.34421 0.95922C2.15685 0.780064 1.9034 0.679504 1.63921 0.679504C1.37503 0.679504 1.12158 0.780064 0.934216 0.95922C0.839727 1.04831 0.764557 1.15455 0.71306 1.27178C0.661564 1.38901 0.634766 1.51491 0.634216 1.64218C0.634766 1.76945 0.661564 1.89534 0.71306 2.01258C0.764557 2.12981 0.839727 2.23605 0.934215 2.32513L6.58421 7.76955C6.67785 7.86719 6.7915 7.94511 6.918 7.99841C7.0445 8.05171 7.18111 8.07922 7.31921 8.07922C7.45731 8.07922 7.59391 8.05171 7.72041 7.99841C7.84691 7.94511 7.96057 7.86719 8.05421 7.76955Z" fill="white"/>
</svg>
