<svg width="20" height="22" viewBox="0 0 20 22" fill="none" xmlns="http://www.w3.org/2000/svg">
<path d="M10 18.0005C10.1978 18.0005 10.3911 17.9418 10.5556 17.832C10.72 17.7221 10.8482 17.5659 10.9239 17.3832C10.9996 17.2004 11.0194 16.9994 10.9808 16.8054C10.9422 16.6114 10.847 16.4332 10.7071 16.2934C10.5673 16.1535 10.3891 16.0583 10.1951 16.0197C10.0011 15.9811 9.80004 16.0009 9.61732 16.0766C9.43459 16.1523 9.27841 16.2805 9.16853 16.4449C9.05865 16.6094 9 16.8027 9 17.0005C9 17.2657 9.10536 17.5201 9.29289 17.7076C9.48043 17.8951 9.73478 18.0005 10 18.0005ZM15 18.0005C15.1978 18.0005 15.3911 17.9418 15.5556 17.832C15.72 17.7221 15.8482 17.5659 15.9239 17.3832C15.9996 17.2004 16.0194 16.9994 15.9808 16.8054C15.9422 16.6114 15.847 16.4332 15.7071 16.2934C15.5673 16.1535 15.3891 16.0583 15.1951 16.0197C15.0011 15.9811 14.8 16.0009 14.6173 16.0766C14.4346 16.1523 14.2784 16.2805 14.1685 16.4449C14.0586 16.6094 14 16.8027 14 17.0005C14 17.2657 14.1054 17.5201 14.2929 17.7076C14.4804 17.8951 14.7348 18.0005 15 18.0005ZM15 14.0005C15.1978 14.0005 15.3911 13.9418 15.5556 13.832C15.72 13.7221 15.8482 13.5659 15.9239 13.3832C15.9996 13.2004 16.0194 12.9994 15.9808 12.8054C15.9422 12.6114 15.847 12.4332 15.7071 12.2934C15.5673 12.1535 15.3891 12.0583 15.1951 12.0197C15.0011 11.9811 14.8 12.0009 14.6173 12.0766C14.4346 12.1523 14.2784 12.2805 14.1685 12.4449C14.0586 12.6094 14 12.8027 14 13.0005C14 13.2657 14.1054 13.5201 14.2929 13.7076C14.4804 13.8951 14.7348 14.0005 15 14.0005ZM10 14.0005C10.1978 14.0005 10.3911 13.9418 10.5556 13.832C10.72 13.7221 10.8482 13.5659 10.9239 13.3832C10.9996 13.2004 11.0194 12.9994 10.9808 12.8054C10.9422 12.6114 10.847 12.4332 10.7071 12.2934C10.5673 12.1535 10.3891 12.0583 10.1951 12.0197C10.0011 11.9811 9.80004 12.0009 9.61732 12.0766C9.43459 12.1523 9.27841 12.2805 9.16853 12.4449C9.05865 12.6094 9 12.8027 9 13.0005C9 13.2657 9.10536 13.5201 9.29289 13.7076C9.48043 13.8951 9.73478 14.0005 10 14.0005ZM17 2.00049H16V1.00049C16 0.735272 15.8946 0.480918 15.7071 0.293381C15.5196 0.105845 15.2652 0.000488281 15 0.000488281C14.7348 0.000488281 14.4804 0.105845 14.2929 0.293381C14.1054 0.480918 14 0.735272 14 1.00049V2.00049H6V1.00049C6 0.735272 5.89464 0.480918 5.70711 0.293381C5.51957 0.105845 5.26522 0.000488281 5 0.000488281C4.73478 0.000488281 4.48043 0.105845 4.29289 0.293381C4.10536 0.480918 4 0.735272 4 1.00049V2.00049H3C2.20435 2.00049 1.44129 2.31656 0.87868 2.87917C0.316071 3.44178 0 4.20484 0 5.00049V19.0005C0 19.7961 0.316071 20.5592 0.87868 21.1218C1.44129 21.6844 2.20435 22.0005 3 22.0005H17C17.7956 22.0005 18.5587 21.6844 19.1213 21.1218C19.6839 20.5592 20 19.7961 20 19.0005V5.00049C20 4.20484 19.6839 3.44178 19.1213 2.87917C18.5587 2.31656 17.7956 2.00049 17 2.00049ZM18 19.0005C18 19.2657 17.8946 19.5201 17.7071 19.7076C17.5196 19.8951 17.2652 20.0005 17 20.0005H3C2.73478 20.0005 2.48043 19.8951 2.29289 19.7076C2.10536 19.5201 2 19.2657 2 19.0005V10.0005H18V19.0005ZM18 8.00049H2V5.00049C2 4.73527 2.10536 4.48092 2.29289 4.29338C2.48043 4.10585 2.73478 4.00049 3 4.00049H4V5.00049C4 5.2657 4.10536 5.52006 4.29289 5.70759C4.48043 5.89513 4.73478 6.00049 5 6.00049C5.26522 6.00049 5.51957 5.89513 5.70711 5.70759C5.89464 5.52006 6 5.2657 6 5.00049V4.00049H14V5.00049C14 5.2657 14.1054 5.52006 14.2929 5.70759C14.4804 5.89513 14.7348 6.00049 15 6.00049C15.2652 6.00049 15.5196 5.89513 15.7071 5.70759C15.8946 5.52006 16 5.2657 16 5.00049V4.00049H17C17.2652 4.00049 17.5196 4.10585 17.7071 4.29338C17.8946 4.48092 18 4.73527 18 5.00049V8.00049ZM5 14.0005C5.19778 14.0005 5.39112 13.9418 5.55557 13.832C5.72002 13.7221 5.84819 13.5659 5.92388 13.3832C5.99957 13.2004 6.01937 12.9994 5.98079 12.8054C5.9422 12.6114 5.84696 12.4332 5.70711 12.2934C5.56725 12.1535 5.38907 12.0583 5.19509 12.0197C5.00111 11.9811 4.80004 12.0009 4.61732 12.0766C4.43459 12.1523 4.27841 12.2805 4.16853 12.4449C4.05865 12.6094 4 12.8027 4 13.0005C4 13.2657 4.10536 13.5201 4.29289 13.7076C4.48043 13.8951 4.73478 14.0005 5 14.0005ZM5 18.0005C5.19778 18.0005 5.39112 17.9418 5.55557 17.832C5.72002 17.7221 5.84819 17.5659 5.92388 17.3832C5.99957 17.2004 6.01937 16.9994 5.98079 16.8054C5.9422 16.6114 5.84696 16.4332 5.70711 16.2934C5.56725 16.1535 5.38907 16.0583 5.19509 16.0197C5.00111 15.9811 4.80004 16.0009 4.61732 16.0766C4.43459 16.1523 4.27841 16.2805 4.16853 16.4449C4.05865 16.6094 4 16.8027 4 17.0005C4 17.2657 4.10536 17.5201 4.29289 17.7076C4.48043 17.8951 4.73478 18.0005 5 18.0005Z" fill="#FFC700"/>
</svg>
