<svg width="15" height="20" viewBox="0 0 15 20" fill="none" xmlns="http://www.w3.org/2000/svg">
<path d="M8.16508 14.29L8.01508 14.17C7.95933 14.1322 7.8988 14.1019 7.83508 14.08L7.65508 14C7.4929 13.9661 7.32484 13.973 7.166 14.0201C7.00716 14.0673 6.86252 14.1531 6.74508 14.27C6.65675 14.3672 6.58572 14.4788 6.53508 14.6C6.4594 14.7822 6.43931 14.9827 6.47733 15.1763C6.51536 15.3699 6.6098 15.5479 6.74877 15.688C6.88775 15.828 7.06504 15.9238 7.25834 15.9633C7.45164 16.0028 7.6523 15.9843 7.83508 15.91C7.95457 15.852 8.0656 15.778 8.16508 15.69C8.30384 15.5494 8.39783 15.3708 8.43521 15.1768C8.47258 14.9828 8.45166 14.7821 8.37508 14.6C8.32522 14.4844 8.25397 14.3792 8.16508 14.29ZM11.4551 0H3.45508C2.65943 0 1.89637 0.316071 1.33376 0.87868C0.771149 1.44129 0.455078 2.20435 0.455078 3V17C0.455078 17.7956 0.771149 18.5587 1.33376 19.1213C1.89637 19.6839 2.65943 20 3.45508 20H11.4551C12.2507 20 13.0138 19.6839 13.5764 19.1213C14.139 18.5587 14.4551 17.7956 14.4551 17V3C14.4551 2.20435 14.139 1.44129 13.5764 0.87868C13.0138 0.316071 12.2507 0 11.4551 0ZM12.4551 17C12.4551 17.2652 12.3497 17.5196 12.1622 17.7071C11.9746 17.8946 11.7203 18 11.4551 18H3.45508C3.18986 18 2.93551 17.8946 2.74797 17.7071C2.56044 17.5196 2.45508 17.2652 2.45508 17V3C2.45508 2.73478 2.56044 2.48043 2.74797 2.29289C2.93551 2.10536 3.18986 2 3.45508 2H11.4551C11.7203 2 11.9746 2.10536 12.1622 2.29289C12.3497 2.48043 12.4551 2.73478 12.4551 3V17Z" fill="#B70000"/>
</svg>
