<svg width="36" height="27" viewBox="0 0 36 27" fill="none" xmlns="http://www.w3.org/2000/svg">
<path d="M13.1418 11.056C14.4645 11.696 15.4885 12.6347 16.2138 13.872C16.9391 15.0667 17.3018 16.496 17.3018 18.16C17.3018 20.6347 16.5125 22.6187 14.9338 24.112C13.3551 25.6054 11.3285 26.352 8.85379 26.352C6.37913 26.352 4.35246 25.6054 2.77379 24.112C1.19513 22.6187 0.405794 20.6347 0.405794 18.16C0.405794 17.0507 0.555127 15.9414 0.853794 14.832C1.15246 13.7227 1.83513 12.0374 2.90179 9.77602L7.38179 0.240025H16.3418L13.1418 11.056ZM31.7018 11.056C33.0245 11.696 34.0485 12.6347 34.7738 13.872C35.4991 15.0667 35.8618 16.496 35.8618 18.16C35.8618 20.6347 35.0725 22.6187 33.4938 24.112C31.9151 25.6054 29.8885 26.352 27.4138 26.352C24.9391 26.352 22.9125 25.6054 21.3338 24.112C19.7551 22.6187 18.9658 20.6347 18.9658 18.16C18.9658 17.0507 19.1151 15.9414 19.4138 14.832C19.7125 13.7227 20.3951 12.0374 21.4618 9.77602L25.9418 0.240025H34.9018L31.7018 11.056Z" fill="#DCDCDC"/>
</svg>
