<svg width="58" height="58" viewBox="0 0 58 58" fill="none" xmlns="http://www.w3.org/2000/svg">
<g clip-path="url(#clip0)">
<path d="M40.2856 26.5503C40.7246 26.1113 40.7246 25.3892 40.2856 24.9502C39.8467 24.5112 39.1245 24.5112 38.6855 24.9502C38.2466 25.3892 38.2466 26.1113 38.6855 26.5503C39.1245 27.0034 39.8467 27.0034 40.2856 26.5503Z" fill="#FFC700"/>
<path d="M1.13281 57.9996H56.8672C57.3203 57.9996 57.7451 57.7306 57.915 57.3058C58.085 56.881 58 56.3995 57.6743 56.0739L1.93994 0.325337C1.61426 -0.000346756 1.13281 -0.0994678 0.708008 0.0846142C0.269043 0.254536 0 0.679341 0 1.13247V56.8668C0 57.4899 0.509766 57.9996 1.13281 57.9996ZM2.26562 3.86538L11.3848 12.9845L8.97754 15.3917C8.53857 15.8307 8.53857 16.5529 8.97754 16.9918C9.4165 17.4308 10.1387 17.4308 10.5776 16.9918L12.9849 14.5846L17.7852 19.3849L15.3779 21.7921C14.939 22.2311 14.939 22.9533 15.3779 23.3922C15.8169 23.8312 16.5391 23.8312 16.978 23.3922L19.3853 20.985L24.1855 25.7853L21.7783 28.1925C21.3394 28.6315 21.3394 29.3537 21.7783 29.7926C22.2173 30.2316 22.9395 30.2316 23.3784 29.7926L25.7856 27.3854L30.5859 32.1857L28.1787 34.5929C27.7397 35.0319 27.7397 35.754 28.1787 36.193C28.6177 36.632 29.3398 36.632 29.7788 36.193L32.186 33.7858L36.9863 38.5861L34.5791 40.9933C34.1401 41.4323 34.1401 42.1544 34.5791 42.5934C35.0181 43.0324 35.7402 43.0324 36.1792 42.5934L38.5864 40.1862L43.3867 44.9865L40.9795 47.3937C40.5405 47.8327 40.5405 48.5548 40.9795 48.9938C41.4185 49.4328 42.1406 49.4328 42.5796 48.9938L44.9868 46.5866L54.0918 55.6915H2.26562V3.86538Z" fill="#FFC700"/>
<path d="M11.6821 23.5484C11.3564 23.2227 10.875 23.1236 10.4502 23.3077C10.0254 23.4776 9.75635 23.9024 9.75635 24.3555V47.125C9.75635 47.7481 10.2661 48.2579 10.8892 48.2579H33.6587C34.1118 48.2579 34.5366 47.9888 34.7066 47.564C34.8765 47.1392 34.7915 46.6578 34.4658 46.3321L11.6821 23.5484ZM12.0078 45.9922V27.0884L30.9116 45.9922H12.0078Z" fill="#FFC700"/>
<path d="M35.4853 23.3501C35.9243 23.7891 36.6465 23.7891 37.0854 23.3501C37.5244 22.9111 37.5244 22.189 37.0854 21.75L32.2852 16.9497C31.8462 16.5107 31.124 16.5107 30.6851 16.9497C30.2461 17.3887 30.2461 18.1108 30.6851 18.5498L35.4853 23.3501Z" fill="#FFC700"/>
<path d="M17.1904 11.5405L48.9941 43.3442C50.3252 44.6753 52.4775 44.6753 53.7944 43.3442L56.9946 40.144C58.3257 38.813 58.3257 36.6607 56.9946 35.3438L25.2051 3.54004C25.0776 3.4126 24.936 3.32764 24.7661 3.271L15.1514 0.0566461C14.7407 -0.0849554 14.3018 0.0283258 13.9902 0.325689C13.6929 0.623052 13.5796 1.07618 13.7212 1.48682L16.9214 11.1016C16.978 11.2715 17.0772 11.4273 17.1904 11.5405ZM55.4087 36.9297C55.8477 37.3687 55.8477 38.0908 55.4087 38.5298L52.2085 41.73C51.7695 42.169 51.0474 42.169 50.6084 41.73L48.1445 39.2803L52.9448 34.48L55.4087 36.9297ZM51.3447 32.8799L46.5444 37.6802L44.9443 36.0801L49.7446 31.2798L51.3447 32.8799ZM25.1484 6.6836L48.1445 29.6797L43.3301 34.48L20.3481 11.4981L25.1484 6.6836ZM23.4351 5.21094L18.8613 9.77051L16.5815 2.917L23.4351 5.21094Z" fill="#FFC700"/>
</g>
<defs>
<clipPath id="clip0">
<rect width="58" height="58" fill="white"/>
</clipPath>
</defs>
</svg>
