<svg width="20" height="21" viewBox="0 0 20 21" fill="none" xmlns="http://www.w3.org/2000/svg">
<path d="M18 20.2666H2C0.89543 20.2666 0 19.3712 0 18.2666V7.3156C0.0337512 6.64446 0.397279 6.03346 0.971 5.6836L8.971 0.883596C9.60412 0.503971 10.3949 0.503971 11.028 0.883596L19.028 5.6836C19.6292 6.04637 19.9976 6.69644 20 7.3986V18.2666C20 19.3712 19.1046 20.2666 18 20.2666ZM2 8.1346V18.2666H18V8.1346L10 13.4676L2 8.1346ZM10 2.5986L3.316 6.6086L10 11.0646L16.683 6.6086L10 2.5986Z" fill="#4E4E4E"/>
</svg>
