<svg width="18" height="22" viewBox="0 0 18 22" fill="none" xmlns="http://www.w3.org/2000/svg">
<path d="M9.71 16.2905C9.66081 16.2452 9.60721 16.205 9.55 16.1705C9.49895 16.1309 9.44143 16.1005 9.38 16.0805C9.32045 16.05 9.25623 16.0298 9.19 16.0205C8.99842 15.98 8.79895 16.001 8.62 16.0805C8.4959 16.1254 8.3832 16.1971 8.28989 16.2904C8.19657 16.3837 8.12491 16.4964 8.08 16.6205C8.02402 16.7392 7.99662 16.8693 8 17.0005C7.99841 17.1305 8.02218 17.2596 8.07 17.3805C8.12798 17.5 8.202 17.611 8.29 17.7105C8.38344 17.8032 8.49426 17.8765 8.61609 17.9263C8.73793 17.976 8.86839 18.0012 9 18.0005C9.13118 18.0039 9.26132 17.9765 9.38 17.9205C9.50119 17.8698 9.6128 17.7988 9.71 17.7105C9.80268 17.617 9.87601 17.5062 9.92577 17.3844C9.97554 17.2626 10.0008 17.1321 10 17.0005C9.99842 16.8698 9.97124 16.7407 9.92 16.6205C9.87241 16.4977 9.80104 16.3856 9.71 16.2905ZM5.55 12.1705C5.49895 12.1309 5.44143 12.1005 5.38 12.0805C5.32176 12.0431 5.25747 12.016 5.19 12.0005C5.06172 11.9706 4.92828 11.9706 4.8 12.0005L4.62 12.0605L4.44 12.1505L4.29 12.2705C4.10253 12.4671 3.99858 12.7288 4 13.0005C3.99924 13.1321 4.02446 13.2626 4.07423 13.3844C4.12399 13.5062 4.19732 13.617 4.29 13.7105C4.3872 13.7988 4.49882 13.8698 4.62 13.9205C4.7715 13.9827 4.93597 14.0068 5.09895 13.9906C5.26193 13.9744 5.41843 13.9184 5.55471 13.8276C5.69099 13.7367 5.80287 13.6138 5.88051 13.4696C5.95815 13.3253 5.99918 13.1643 6 13.0005C5.99632 12.7357 5.89273 12.4821 5.71 12.2905L5.55 12.1705ZM5.71 16.2905C5.6149 16.1994 5.50275 16.1281 5.38 16.0805C5.19898 15.9966 4.99698 15.9687 4.8 16.0005L4.62 16.0605C4.55628 16.0824 4.49575 16.1126 4.44 16.1505C4.38761 16.1874 4.33752 16.2275 4.29 16.2705C4.19896 16.3656 4.12759 16.4777 4.08 16.6005C4.02709 16.7202 3.99977 16.8496 3.99977 16.9805C3.99977 17.1114 4.02709 17.2408 4.08 17.3605C4.13064 17.4817 4.20167 17.5933 4.29 17.6905C4.38178 17.7868 4.49185 17.8638 4.61376 17.917C4.73567 17.9703 4.86698 17.9986 5 18.0005C5.13118 18.0039 5.26132 17.9765 5.38 17.9205C5.50118 17.8698 5.6128 17.7988 5.71 17.7105C5.79833 17.6133 5.86936 17.5017 5.92 17.3805C5.97291 17.2608 6.00023 17.1314 6.00023 17.0005C6.00023 16.8696 5.97291 16.7402 5.92 16.6205C5.87241 16.4977 5.80104 16.3856 5.71 16.2905ZM8.62 12.0805C8.49725 12.1281 8.3851 12.1994 8.29 12.2905C8.10727 12.4821 8.00368 12.7357 8 13.0005C8.00082 13.1643 8.04185 13.3253 8.11949 13.4696C8.19713 13.6138 8.30901 13.7367 8.44529 13.8276C8.58156 13.9184 8.73807 13.9744 8.90105 13.9906C9.06404 14.0068 9.2285 13.9827 9.38 13.9205C9.50119 13.8698 9.6128 13.7988 9.71 13.7105C9.80268 13.617 9.87601 13.5062 9.92577 13.3844C9.97554 13.2626 10.0008 13.1321 10 13.0005C9.99632 12.7357 9.89273 12.4821 9.71 12.2905C9.56938 12.1517 9.3908 12.0577 9.19681 12.0204C9.00282 11.983 8.80211 12.0039 8.62 12.0805ZM13.71 16.2905C13.6128 16.2022 13.5012 16.1311 13.38 16.0805C13.1979 16.0039 12.9972 15.983 12.8032 16.0204C12.6092 16.0577 12.4306 16.1517 12.29 16.2905C12.199 16.3856 12.1276 16.4977 12.08 16.6205C12.0271 16.7402 11.9998 16.8696 11.9998 17.0005C11.9998 17.1314 12.0271 17.2608 12.08 17.3805C12.1306 17.5017 12.2017 17.6133 12.29 17.7105C12.3834 17.8032 12.4943 17.8765 12.6161 17.9263C12.7379 17.976 12.8684 18.0012 13 18.0005C13.1312 18.0039 13.2613 17.9765 13.38 17.9205C13.5012 17.8698 13.6128 17.7988 13.71 17.7105C13.8488 17.5699 13.9428 17.3913 13.9801 17.1973C14.0175 17.0033 13.9966 16.8026 13.92 16.6205C13.8724 16.4977 13.801 16.3856 13.71 16.2905ZM13 4.00049H5C4.73478 4.00049 4.48043 4.10585 4.29289 4.29338C4.10536 4.48092 4 4.73527 4 5.00049V9.00049C4 9.26571 4.10536 9.52006 4.29289 9.70759C4.48043 9.89513 4.73478 10.0005 5 10.0005H13C13.2652 10.0005 13.5196 9.89513 13.7071 9.70759C13.8946 9.52006 14 9.26571 14 9.00049V5.00049C14 4.73527 13.8946 4.48092 13.7071 4.29338C13.5196 4.10585 13.2652 4.00049 13 4.00049ZM12 8.00049H6V6.00049H12V8.00049ZM15 0.000488281H3C2.20435 0.000488281 1.44129 0.316559 0.87868 0.879168C0.316071 1.44178 0 2.20484 0 3.00049V19.0005C0 19.7961 0.316071 20.5592 0.87868 21.1218C1.44129 21.6844 2.20435 22.0005 3 22.0005H15C15.7956 22.0005 16.5587 21.6844 17.1213 21.1218C17.6839 20.5592 18 19.7961 18 19.0005V3.00049C18 2.20484 17.6839 1.44178 17.1213 0.879168C16.5587 0.316559 15.7956 0.000488281 15 0.000488281ZM16 19.0005C16 19.2657 15.8946 19.5201 15.7071 19.7076C15.5196 19.8951 15.2652 20.0005 15 20.0005H3C2.73478 20.0005 2.48043 19.8951 2.29289 19.7076C2.10536 19.5201 2 19.2657 2 19.0005V3.00049C2 2.73527 2.10536 2.48092 2.29289 2.29338C2.48043 2.10584 2.73478 2.00049 3 2.00049H15C15.2652 2.00049 15.5196 2.10584 15.7071 2.29338C15.8946 2.48092 16 2.73527 16 3.00049V19.0005ZM13.55 12.1705C13.4989 12.1309 13.4414 12.1005 13.38 12.0805C13.3205 12.05 13.2562 12.0298 13.19 12.0205C13.0617 11.9906 12.9283 11.9906 12.8 12.0205L12.62 12.0805L12.44 12.1705L12.29 12.2905C12.1073 12.4821 12.0037 12.7357 12 13.0005C12.0008 13.1643 12.0418 13.3253 12.1195 13.4696C12.1971 13.6138 12.309 13.7367 12.4453 13.8276C12.5816 13.9184 12.7381 13.9744 12.9011 13.9906C13.064 14.0068 13.2285 13.9827 13.38 13.9205C13.5012 13.8698 13.6128 13.7988 13.71 13.7105C13.8027 13.617 13.876 13.5062 13.9258 13.3844C13.9755 13.2626 14.0008 13.1321 14 13.0005C13.9963 12.7357 13.8927 12.4821 13.71 12.2905L13.55 12.1705Z" fill="#FFC700"/>
</svg>
