<svg width="13" height="13" viewBox="0 0 13 13" fill="none" xmlns="http://www.w3.org/2000/svg">
<path d="M12.5738 10.8167L8.33121 6.57406L12.5738 2.33141C12.7614 2.14388 12.8667 1.88952 12.8667 1.62431C12.8667 1.35909 12.7614 1.10474 12.5738 0.9172C12.3863 0.729664 12.132 0.624307 11.8667 0.624307C11.6015 0.624307 11.3472 0.729664 11.1596 0.9172L6.91699 5.15984L2.67435 0.9172C2.48681 0.729664 2.23246 0.624307 1.96724 0.624307C1.70203 0.624307 1.44767 0.729664 1.26014 0.9172C1.0726 1.10474 0.967244 1.35909 0.967244 1.62431C0.967245 1.88952 1.0726 2.14388 1.26014 2.33141L5.50278 6.57406L1.26014 10.8167C1.0726 11.0042 0.967243 11.2586 0.967244 11.5238C0.967244 11.789 1.0726 12.0434 1.26014 12.2309C1.44767 12.4184 1.70203 12.5238 1.96724 12.5238C2.23246 12.5238 2.48681 12.4184 2.67435 12.2309L6.91699 7.98827L11.1596 12.2309C11.3472 12.4184 11.6015 12.5238 11.8667 12.5238C12.132 12.5238 12.3863 12.4184 12.5738 12.2309C12.7614 12.0434 12.8667 11.789 12.8667 11.5238C12.8667 11.2586 12.7614 11.0042 12.5738 10.8167Z" fill="#B70000"/>
</svg>
