<svg width="20" height="17" viewBox="0 0 20 17" fill="none" xmlns="http://www.w3.org/2000/svg">
<path d="M17 0.197998H3C2.20435 0.197998 1.44129 0.514069 0.87868 1.07668C0.316071 1.63929 0 2.40235 0 3.198V13.198C0 13.9936 0.316071 14.7567 0.87868 15.3193C1.44129 15.8819 2.20435 16.198 3 16.198H17C17.7956 16.198 18.5587 15.8819 19.1213 15.3193C19.6839 14.7567 20 13.9936 20 13.198V3.198C20 2.40235 19.6839 1.63929 19.1213 1.07668C18.5587 0.514069 17.7956 0.197998 17 0.197998ZM3 2.198H17C17.2652 2.198 17.5196 2.30335 17.7071 2.49089C17.8946 2.67843 18 2.93278 18 3.198L10 8.078L2 3.198C2 2.93278 2.10536 2.67843 2.29289 2.49089C2.48043 2.30335 2.73478 2.198 3 2.198ZM18 13.198C18 13.4632 17.8946 13.7176 17.7071 13.9051C17.5196 14.0926 17.2652 14.198 17 14.198H3C2.73478 14.198 2.48043 14.0926 2.29289 13.9051C2.10536 13.7176 2 13.4632 2 13.198V5.478L9.48 10.048C9.63202 10.1358 9.80446 10.182 9.98 10.182C10.1555 10.182 10.328 10.1358 10.48 10.048L18 5.478V13.198Z" fill="#B70000"/>
</svg>
