<svg width="19" height="18" viewBox="0 0 19 18" fill="none" xmlns="http://www.w3.org/2000/svg">
<path d="M8.02736 15.3905C9.80234 15.3901 11.5262 14.8186 12.9244 13.7668L17.3204 17.9953L18.7344 16.6352L14.3384 12.4066C15.4324 11.0616 16.0269 9.40304 16.0274 7.69524C16.0274 3.45228 12.4384 0 8.02736 0C3.61635 0 0.0273438 3.45228 0.0273438 7.69524C0.0273438 11.9382 3.61635 15.3905 8.02736 15.3905ZM8.02736 1.92381C11.3364 1.92381 14.0274 4.5123 14.0274 7.69524C14.0274 10.8782 11.3364 13.4667 8.02736 13.4667C4.71835 13.4667 2.02735 10.8782 2.02735 7.69524C2.02735 4.5123 4.71835 1.92381 8.02736 1.92381Z" fill="#B70000"/>
</svg>
