<svg width="52" height="52" viewBox="0 0 52 52" fill="none" xmlns="http://www.w3.org/2000/svg">
<path d="M1.5 26C1.5 12.469 12.469 1.5 26 1.5C39.531 1.5 50.5 12.469 50.5 26C50.5 39.531 39.531 50.5 26 50.5C12.469 50.5 1.5 39.531 1.5 26Z" stroke="#B70000" stroke-width="3"/>
<mask id="path-2-inside-1" fill="white">
<path d="M22.6292 27.2807L28.2892 32.7155C28.3822 32.8056 28.4928 32.8772 28.6146 32.926C28.7365 32.9749 28.8672 33 28.9992 33C29.1312 33 29.2619 32.9749 29.3838 32.926C29.5056 32.8772 29.6162 32.8056 29.7092 32.7155C29.8955 32.5352 30 32.2915 30 32.0373C30 31.7832 29.8955 31.5394 29.7092 31.3592L24.7592 26.5497L29.7092 21.7883C29.8955 21.6081 30 21.3643 30 21.1101C30 20.856 29.8955 20.6122 29.7092 20.432C29.6166 20.3411 29.5061 20.2688 29.3843 20.2193C29.2624 20.1697 29.1315 20.144 28.9992 20.1434C28.8669 20.144 28.736 20.1697 28.6141 20.2193C28.4923 20.2688 28.3818 20.3411 28.2892 20.432L22.6292 25.8667C22.5277 25.9568 22.4467 26.0661 22.3913 26.1878C22.3359 26.3095 22.3073 26.4409 22.3073 26.5737C22.3073 26.7066 22.3359 26.838 22.3913 26.9597C22.4467 27.0813 22.5277 27.1907 22.6292 27.2807Z"/>
</mask>
<path d="M28.2892 32.7155L30.3778 30.5619L30.3724 30.5567L30.367 30.5515L28.2892 32.7155ZM29.7092 32.7155L27.6231 30.5596L27.6206 30.5619L29.7092 32.7155ZM30 32.0373L33 32.0373L30 32.0373ZM29.7092 31.3592L27.6186 33.5108L27.6231 33.5151L29.7092 31.3592ZM24.7592 26.5497L22.6795 24.3876L20.443 26.5388L22.6686 28.7013L24.7592 26.5497ZM29.7092 21.7883L31.7889 23.9504L31.7954 23.9442L29.7092 21.7883ZM29.7092 20.432L27.6079 22.5732L27.6155 22.5806L27.6231 22.5879L29.7092 20.432ZM28.9992 20.1434L29.0112 17.1435L28.9992 17.1434L28.9872 17.1435L28.9992 20.1434ZM28.2892 20.432L30.367 22.596L30.3788 22.5846L30.3905 22.5732L28.2892 20.432ZM22.6292 25.8667L24.6204 28.1106L24.6645 28.0715L24.707 28.0307L22.6292 25.8667ZM20.5514 29.4447L26.2114 34.8794L30.367 30.5515L24.707 25.1168L20.5514 29.4447ZM26.2006 34.869C26.5776 35.2346 27.0198 35.5188 27.4987 35.7107L29.7306 30.1413C29.9658 30.2356 30.1867 30.3766 30.3778 30.5619L26.2006 34.869ZM27.4987 35.7107C27.9774 35.9026 28.4871 36 28.9992 36L28.9992 30C29.2473 30 29.4956 30.0471 29.7306 30.1413L27.4987 35.7107ZM28.9992 36C29.5113 36 30.021 35.9026 30.4997 35.7107L28.2678 30.1413C28.5029 30.0471 28.7511 30 28.9992 30L28.9992 36ZM30.4997 35.7107C30.9787 35.5188 31.4208 35.2346 31.7978 34.869L27.6206 30.5619C27.8117 30.3766 28.0326 30.2356 28.2678 30.1413L30.4997 35.7107ZM31.7954 34.8714C32.5526 34.1387 33 33.1222 33 32.0373L27 32.0373C27 31.4607 27.2383 30.9318 27.6231 30.5596L31.7954 34.8714ZM33 32.0373C33 30.9524 32.5526 29.936 31.7954 29.2033L27.6231 33.5151C27.2383 33.1428 27 32.614 27 32.0373L33 32.0373ZM31.7998 29.2076L26.8498 24.3981L22.6686 28.7013L27.6186 33.5108L31.7998 29.2076ZM26.8389 28.7118L31.7889 23.9504L27.6295 19.6262L22.6795 24.3876L26.8389 28.7118ZM31.7954 23.9442C32.5526 23.2115 33 22.1951 33 21.1101L27 21.1101C27 20.5335 27.2383 20.0047 27.6231 19.6324L31.7954 23.9442ZM33 21.1101C33 20.0252 32.5526 19.0088 31.7954 18.2761L27.6231 22.5879C27.2383 22.2156 27 21.6868 27 21.1101L33 21.1101ZM31.8105 18.2908C31.4347 17.9221 30.993 17.6348 30.5138 17.4401L28.2547 22.9985C28.0193 22.9028 27.7985 22.7602 27.6079 22.5732L31.8105 18.2908ZM30.5138 17.4401C30.0349 17.2454 29.5244 17.1455 29.0112 17.1435L28.9872 23.1434C28.7386 23.1424 28.4899 23.0941 28.2547 22.9985L30.5138 17.4401ZM28.9872 17.1435C28.474 17.1455 27.9635 17.2454 27.4846 17.4401L29.7437 22.9985C29.5085 23.0941 29.2598 23.1424 29.0112 23.1434L28.9872 17.1435ZM27.4846 17.4401C27.0054 17.6348 26.5637 17.9221 26.1879 18.2908L30.3905 22.5732C30.1999 22.7602 29.9791 22.9028 29.7437 22.9985L27.4846 17.4401ZM26.2114 18.2681L20.5514 23.7028L24.707 28.0307L30.367 22.596L26.2114 18.2681ZM20.638 23.6228C20.2278 23.9869 19.8928 24.4355 19.661 24.9446L25.1215 27.4311C25.0005 27.6968 24.8276 27.9268 24.6204 28.1106L20.638 23.6228ZM19.661 24.9446C19.429 25.454 19.3073 26.0091 19.3073 26.5737L25.3073 26.5737C25.3073 26.8727 25.2427 27.165 25.1215 27.4311L19.661 24.9446ZM19.3073 26.5737C19.3073 27.1384 19.429 27.6935 19.661 28.2029L25.1215 25.7164C25.2427 25.9825 25.3073 26.2748 25.3073 26.5737L19.3073 26.5737ZM19.661 28.2029C19.8928 28.712 20.2278 29.1606 20.638 29.5246L24.6204 25.0368C24.8276 25.2207 25.0005 25.4507 25.1215 25.7164L19.661 28.2029Z" fill="#B70000" mask="url(#path-2-inside-1)"/>
</svg>
