<svg width="15" height="21" viewBox="0 0 15 21" fill="none" xmlns="http://www.w3.org/2000/svg">
<path d="M2.77238 1.3406L3.84837 0.996604C4.85837 0.674604 5.93538 1.1956 6.36838 2.2136L7.22738 4.2416C7.60138 5.1246 7.39438 6.1636 6.71338 6.8096L4.81938 8.6076C4.93538 9.6836 5.29738 10.7426 5.90338 11.7846C6.47916 12.7928 7.2514 13.6752 8.17438 14.3796L10.4494 13.6196C11.3124 13.3326 12.2514 13.6636 12.7794 14.4406L14.0124 16.2506C14.6274 17.1546 14.5174 18.4006 13.7544 19.1666L12.9364 19.9876C12.1224 20.8046 10.9594 21.1016 9.88437 20.7656C7.34537 19.9736 5.01138 17.6226 2.88138 13.7126C0.748375 9.7966 -0.00462466 6.4726 0.623375 3.7446C0.887375 2.5966 1.70438 1.6816 2.77238 1.3406Z" fill="#4E4E4E"/>
</svg>
