<svg width="18" height="20" viewBox="0 0 18 20" fill="none" xmlns="http://www.w3.org/2000/svg">
<path d="M17.1801 8.19049C16.4608 8.06033 15.7311 7.99673 15.0001 8.00049C14.5801 8.00049 14.1701 8.00049 13.7601 8.08049C13.2497 7.39937 12.5982 6.83653 11.8501 6.43049C12.4927 5.72874 12.8494 4.81197 12.8501 3.86049C12.8501 2.83675 12.4435 1.85495 11.7196 1.13106C10.9957 0.407166 10.0139 0.000488281 8.99013 0.000488281C7.9664 0.000488281 6.98459 0.407166 6.2607 1.13106C5.53681 1.85495 5.13013 2.83675 5.13013 3.86049C5.13087 4.81197 5.48759 5.72874 6.13013 6.43049C5.38653 6.83864 4.73606 7.39716 4.22013 8.07049C3.83013 8.00049 3.42013 8.00049 3.00013 8.00049C2.26856 8.00333 1.5388 8.07363 0.820133 8.21049C0.587175 8.25308 0.376895 8.37697 0.226732 8.5601C0.0765696 8.74323 -0.0037292 8.9737 0.00013311 9.21049V17.4605C-0.000105472 17.6074 0.0320283 17.7526 0.0942493 17.8856C0.15647 18.0187 0.24725 18.1365 0.360133 18.2305C0.472304 18.3251 0.603914 18.3938 0.745627 18.4318C0.887339 18.4699 1.03568 18.4762 1.18013 18.4505C1.77854 18.3202 2.3879 18.2465 3.00013 18.2305C4.93723 18.2284 6.8323 18.7952 8.45013 19.8605L8.58013 19.9105C8.71278 19.968 8.85555 19.9986 9.00013 20.0005C9.09558 19.9993 9.19018 19.9824 9.28013 19.9505H9.35013L9.48013 19.9005C11.1134 18.8078 13.0351 18.2264 15.0001 18.2305C15.6111 18.2333 16.2204 18.2936 16.8201 18.4105C16.9646 18.4362 17.1129 18.4299 17.2546 18.3918C17.3964 18.3538 17.528 18.2851 17.6401 18.1905C17.753 18.0965 17.8438 17.9787 17.906 17.8456C17.9682 17.7126 18.0004 17.5674 18.0001 17.4205V9.17049C17.9993 8.93713 17.9168 8.71141 17.7671 8.53243C17.6173 8.35346 17.4097 8.23249 17.1801 8.19049ZM9.00013 2.00049C9.46858 2.03491 9.90666 2.24528 10.2264 2.58937C10.5461 2.93346 10.7238 3.38578 10.7238 3.85549C10.7238 4.3252 10.5461 4.77752 10.2264 5.1216C9.90666 5.46569 9.46858 5.67607 9.00013 5.71049C8.53169 5.67607 8.09361 5.46569 7.77387 5.1216C7.45414 4.77752 7.27642 4.3252 7.27642 3.85549C7.27642 3.38578 7.45414 2.93346 7.77387 2.58937C8.09361 2.24528 8.53169 2.03491 9.00013 2.00049ZM8.00013 17.3305C6.43281 16.606 4.7268 16.2307 3.00013 16.2305C2.67013 16.2305 2.34013 16.2305 2.00013 16.2805V10.0005C2.8387 9.90668 3.68595 9.92349 4.52013 10.0505H4.63013C5.82173 10.2695 6.96361 10.7032 8.00013 11.3305V17.3305ZM9.00013 9.60049C8.55546 9.34397 8.09447 9.11682 7.62013 8.92049H7.56013C7.23013 8.79049 6.90013 8.66049 6.56013 8.56049C7.25445 8.00786 8.11281 7.7018 9.00013 7.69049C9.8851 7.6961 10.7432 7.99504 11.4401 8.54049C10.5912 8.80552 9.77321 9.16089 9.00013 9.60049ZM16.0001 16.2805C13.9468 16.0742 11.8756 16.4194 10.0001 17.2805V11.2805C11.0385 10.6693 12.1811 10.2556 13.3701 10.0605H13.5701C14.3741 9.93529 15.191 9.91512 16.0001 10.0005V16.2805Z" fill="#FFC700"/>
</svg>
