<svg width="23" height="23" viewBox="0 0 23 23" fill="none" xmlns="http://www.w3.org/2000/svg">
<path d="M16.9703 15.5563L12.7277 11.3137L16.9703 7.07104C17.1579 6.8835 17.2632 6.62915 17.2632 6.36393C17.2632 6.09871 17.1579 5.84436 16.9703 5.65682C16.7828 5.46929 16.5284 5.36393 16.2632 5.36393C15.998 5.36393 15.7437 5.46929 15.5561 5.65682L11.3135 9.89947L7.07084 5.65682C6.8833 5.46929 6.62895 5.36393 6.36373 5.36393C6.09851 5.36393 5.84416 5.46929 5.65662 5.65682C5.46909 5.84436 5.36373 6.09871 5.36373 6.36393C5.36373 6.62915 5.46909 6.8835 5.65662 7.07104L9.89926 11.3137L5.65662 15.5563C5.46909 15.7439 5.36373 15.9982 5.36373 16.2634C5.36373 16.5286 5.46909 16.783 5.65662 16.9705C5.84416 17.1581 6.09851 17.2634 6.36373 17.2634C6.62894 17.2634 6.8833 17.1581 7.07084 16.9705L11.3135 12.7279L15.5561 16.9705C15.7437 17.1581 15.998 17.2634 16.2632 17.2634C16.5284 17.2634 16.7828 17.1581 16.9703 16.9705C17.1579 16.783 17.2632 16.5286 17.2632 16.2634C17.2632 15.9982 17.1579 15.7439 16.9703 15.5563Z" fill="white"/>
</svg>
