<svg width="20" height="17" viewBox="0 0 20 17" fill="none" xmlns="http://www.w3.org/2000/svg">
<path d="M17 0.431152H3C2.20435 0.431152 1.44129 0.747223 0.87868 1.30983C0.316071 1.87244 0 2.6355 0 3.43115V13.4312C0 14.2268 0.316071 14.9899 0.87868 15.5525C1.44129 16.1151 2.20435 16.4312 3 16.4312H17C17.7956 16.4312 18.5587 16.1151 19.1213 15.5525C19.6839 14.9899 20 14.2268 20 13.4312V3.43115C20 2.6355 19.6839 1.87244 19.1213 1.30983C18.5587 0.747223 17.7956 0.431152 17 0.431152ZM3 2.43115H17C17.2652 2.43115 17.5196 2.53651 17.7071 2.72405C17.8946 2.91158 18 3.16594 18 3.43115L10 8.31115L2 3.43115C2 3.16594 2.10536 2.91158 2.29289 2.72405C2.48043 2.53651 2.73478 2.43115 3 2.43115ZM18 13.4312C18 13.6964 17.8946 13.9507 17.7071 14.1383C17.5196 14.3258 17.2652 14.4312 17 14.4312H3C2.73478 14.4312 2.48043 14.3258 2.29289 14.1383C2.10536 13.9507 2 13.6964 2 13.4312V5.71115L9.48 10.2812C9.63202 10.3689 9.80446 10.4151 9.98 10.4151C10.1555 10.4151 10.328 10.3689 10.48 10.2812L18 5.71115V13.4312Z" fill="#FFC700"/>
</svg>
