<svg width="16" height="20" viewBox="0 0 16 20" fill="none" xmlns="http://www.w3.org/2000/svg">
<path d="M8 0.000488281C5.87827 0.000488281 3.84344 0.843343 2.34315 2.34363C0.842855 3.84392 0 5.87876 0 8.00049C0 13.4005 7.05 19.5005 7.35 19.7605C7.53113 19.9154 7.76165 20.0006 8 20.0006C8.23835 20.0006 8.46887 19.9154 8.65 19.7605C9 19.5005 16 13.4005 16 8.00049C16 5.87876 15.1571 3.84392 13.6569 2.34363C12.1566 0.843343 10.1217 0.000488281 8 0.000488281ZM8 17.6505C5.87 15.6505 2 11.3405 2 8.00049C2 6.40919 2.63214 4.88307 3.75736 3.75785C4.88258 2.63263 6.4087 2.00049 8 2.00049C9.5913 2.00049 11.1174 2.63263 12.2426 3.75785C13.3679 4.88307 14 6.40919 14 8.00049C14 11.3405 10.13 15.6605 8 17.6505ZM8 4.00049C7.20887 4.00049 6.43552 4.23508 5.77772 4.67461C5.11992 5.11414 4.60723 5.73885 4.30448 6.46975C4.00173 7.20066 3.92252 8.00493 4.07686 8.78085C4.2312 9.55677 4.61216 10.2695 5.17157 10.8289C5.73098 11.3883 6.44371 11.7693 7.21964 11.9236C7.99556 12.078 8.79983 11.9988 9.53073 11.696C10.2616 11.3933 10.8864 10.8806 11.3259 10.2228C11.7654 9.56497 12 8.79161 12 8.00049C12 6.93962 11.5786 5.92221 10.8284 5.17206C10.0783 4.42192 9.06087 4.00049 8 4.00049ZM8 10.0005C7.60444 10.0005 7.21776 9.88319 6.88886 9.66343C6.55996 9.44366 6.30362 9.13131 6.15224 8.76585C6.00087 8.4004 5.96126 7.99827 6.03843 7.61031C6.1156 7.22235 6.30608 6.86598 6.58579 6.58628C6.86549 6.30657 7.22186 6.11609 7.60982 6.03892C7.99778 5.96175 8.39991 6.00135 8.76537 6.15273C9.13082 6.3041 9.44318 6.56045 9.66294 6.88935C9.8827 7.21825 10 7.60493 10 8.00049C10 8.53092 9.78929 9.03963 9.41421 9.4147C9.03914 9.78977 8.53043 10.0005 8 10.0005Z" fill="#FFC700"/>
</svg>
