<svg width="19" height="18" viewBox="0 0 19 18" fill="none" xmlns="http://www.w3.org/2000/svg">
<path d="M8.26307 15.3905C10.0381 15.3901 11.7619 14.8186 13.1601 13.7668L17.5561 17.9953L18.9701 16.6352L14.5741 12.4066C15.6681 11.0616 16.2627 9.40304 16.2631 7.69524C16.2631 3.45228 12.6741 0 8.26307 0C3.85207 0 0.263062 3.45228 0.263062 7.69524C0.263062 11.9382 3.85207 15.3905 8.26307 15.3905ZM8.26307 1.92381C11.5721 1.92381 14.2631 4.5123 14.2631 7.69524C14.2631 10.8782 11.5721 13.4667 8.26307 13.4667C4.95407 13.4667 2.26306 10.8782 2.26306 7.69524C2.26306 4.5123 4.95407 1.92381 8.26307 1.92381Z" fill="#B70000"/>
</svg>
