<svg width="57" height="57" viewBox="0 0 57 57" fill="none" xmlns="http://www.w3.org/2000/svg">
<g clip-path="url(#clip0)">
<path d="M38.6169 17.2698C38.0046 17.2698 37.5037 17.7708 37.5037 18.3831C37.5037 18.9954 38.0046 19.4963 38.6169 19.4963C39.2292 19.4963 39.7302 18.9954 39.7302 18.3831C39.7302 17.7708 39.2292 17.2698 38.6169 17.2698Z" fill="#FFC700"/>
<path d="M18.3831 37.5037C17.7708 37.5037 17.2698 38.0046 17.2698 38.6169C17.2698 39.2292 17.7708 39.7302 18.3831 39.7302C18.9954 39.7302 19.4963 39.2292 19.4963 38.6169C19.4963 38.0046 18.9954 37.5037 18.3831 37.5037Z" fill="#FFC700"/>
<path d="M55.6084 6.84504C55.2327 6.76155 54.843 6.87287 54.5647 7.15119L49.9585 11.7991H47.7458L45.3105 9.28034V7.02595L49.8611 2.40583C50.1255 2.12751 50.2368 1.73787 50.1533 1.36213C50.0698 0.986401 49.7915 0.694165 49.4297 0.568921C48.2747 0.193189 47.0779 -0.0016355 45.8672 -0.0016355C42.2351 -0.0016355 38.9509 1.6822 36.8357 4.6324C34.8596 7.38777 34.2473 10.7694 35.124 14.0118L26.9275 22.2083L13.248 8.52888V5.82917C13.248 5.43952 13.0393 5.07771 12.7053 4.86897L4.84277 0.151441C4.39746 -0.112964 3.84082 -0.0433835 3.479 0.318433L0.333984 3.47737C-0.027832 3.83918 -0.0974121 4.39582 0.166992 4.84114L4.88452 12.7176C5.07935 13.0516 5.44116 13.2603 5.84473 13.2603H8.53052L22.196 26.9537L14.0273 35.1224C10.7849 34.2457 7.40332 34.858 4.64795 36.848C1.68384 38.9493 0 42.2335 0 45.8655C0 47.0762 0.194824 48.273 0.584473 49.4141C0.709717 49.7759 1.01587 50.0542 1.3916 50.1377C1.76733 50.2212 2.15698 50.1099 2.4353 49.8316L7.05542 45.1837H9.28198L11.8008 47.7303V49.9568L7.15283 54.577C6.87451 54.8553 6.76318 55.2449 6.84668 55.6207C6.93018 55.9964 7.2085 56.3025 7.57031 56.4278C8.71143 56.8174 9.9082 57.0123 11.1189 57.0123C14.751 57.0123 18.0352 55.3284 20.1504 52.3782C22.1404 49.6229 22.7388 46.2273 21.876 42.9988L28.4304 36.4444L29.9333 38.0726L29.2375 38.7684C28.8062 39.1998 28.8062 39.9095 29.2375 40.3409C29.6689 40.7723 30.3787 40.7723 30.8101 40.3409L31.4363 39.7147L45.5332 55.0362C45.5471 55.0501 45.561 55.064 45.561 55.064C48.1772 57.6802 52.3938 57.6802 55.01 55.064C57.6123 52.4617 57.6123 48.2173 55.01 45.615C54.9961 45.6011 54.9822 45.5872 54.9683 45.5872L39.6606 31.4903L40.2729 30.878C40.7043 30.4466 40.7043 29.7369 40.2729 29.3055C39.8416 28.8741 39.1318 28.8741 38.7004 29.3055L38.0186 29.9874L36.3765 28.4844L42.9727 21.8882C43.905 22.1387 44.8792 22.264 45.8533 22.264C51.9902 22.264 56.9861 17.2681 56.9861 11.1312C56.9861 9.92048 56.7913 8.7237 56.4016 7.58259C56.2903 7.20686 55.9841 6.92854 55.6084 6.84504ZM9.76904 11.3399C9.5603 11.1312 9.28198 11.0198 8.97583 11.0198H6.45703L2.5188 4.43757L4.43921 2.51716L11.0215 6.46931V8.98811C11.0215 9.28034 11.1328 9.55866 11.3416 9.7674L25.3411 23.7947L23.7686 25.3673L9.76904 11.3399ZM38.0881 33.0628L53.4792 47.1876C55.2048 48.9271 55.1909 51.7381 53.4653 53.4637C51.7258 55.2032 48.9287 55.2032 47.1892 53.4776L33.0366 38.1143L38.0881 33.0628ZM36.446 31.5599L31.5198 36.4861L30.0168 34.858L34.804 30.0709L36.446 31.5599ZM45.8672 20.0374C44.8931 20.0374 43.9329 19.8843 43.0283 19.5782C42.6248 19.439 42.1794 19.5504 41.8872 19.8426C36.3069 25.4229 24.2834 37.4463 19.8582 41.8716C19.552 42.1778 19.4546 42.6092 19.5938 43.0128C20.5122 45.7542 20.0808 48.6905 18.3831 51.0562C16.6853 53.408 14.0552 54.7579 11.1606 54.7579C10.8406 54.7579 10.5066 54.7439 10.1865 54.7022L13.6934 51.2093C13.9021 51.0005 14.0273 50.7222 14.0273 50.4161V47.271C14.0273 46.9788 13.916 46.6866 13.7073 46.4778L10.5205 43.2911C10.3118 43.0823 10.0334 42.971 9.72729 42.971H6.58228C6.29004 42.971 5.9978 43.0962 5.78906 43.305L2.28223 46.8397C2.24048 46.5196 2.22656 46.1995 2.22656 45.8655C2.22656 42.971 3.57642 40.327 5.92822 38.6431C8.29395 36.9454 11.2163 36.5001 13.9717 37.4324C14.3752 37.5716 14.8206 37.4603 15.1128 37.168C15.1685 37.1124 37.1279 15.1529 37.1418 15.139C37.448 14.8467 37.5454 14.4014 37.4062 13.9979C36.4739 11.2564 36.9192 8.32014 38.6169 5.95442C40.3286 3.57478 42.9727 2.22493 45.8672 2.22493C46.2012 2.22493 46.5352 2.23884 46.8691 2.28059L43.4041 5.80134C43.1953 6.01008 43.084 6.2884 43.084 6.58064V9.72565C43.084 10.0179 43.1953 10.2962 43.3901 10.505L46.4656 13.6917C46.6743 13.9144 46.9666 14.0257 47.2727 14.0257H50.4177C50.71 14.0257 51.0022 13.9005 51.2109 13.6917L54.7178 10.1571C54.7595 10.4771 54.7734 10.7972 54.7734 11.1312C54.7734 16.0435 50.7795 20.0374 45.8672 20.0374Z" fill="#FFC700"/>
<path d="M34.6787 20.7488L20.7488 34.6787C20.3174 35.1101 20.3174 35.8198 20.7488 36.2512C21.1802 36.6826 21.8899 36.6826 22.3213 36.2512L36.2512 22.3213C36.6826 21.8899 36.6826 21.1802 36.2512 20.7488C35.8198 20.3174 35.1101 20.3174 34.6787 20.7488Z" fill="#FFC700"/>
<path d="M48.7478 50.3203C49.1792 50.7517 49.8889 50.7517 50.3203 50.3203C50.7517 49.8889 50.7517 49.1792 50.3203 48.7478L40.2869 38.7422C39.8555 38.3108 39.1458 38.3108 38.7144 38.7422C38.283 39.1736 38.283 39.8833 38.7144 40.3147L48.7478 50.3203Z" fill="#FFC700"/>
</g>
<defs>
<clipPath id="clip0">
<rect width="57" height="57" fill="white"/>
</clipPath>
</defs>
</svg>
