<svg width="77" height="74" viewBox="0 0 77 74" fill="none" xmlns="http://www.w3.org/2000/svg">
<g clip-path="url(#clip0)">
<path d="M76.9144 57.6629L72.6794 46.1975C72.5725 45.8616 72.3372 45.6096 72.0164 45.4626C71.6955 45.3156 71.3319 45.2946 71.0111 45.4206C70.6902 45.5466 70.4122 45.7776 70.2839 46.0925C70.1341 46.4075 70.1341 46.7645 70.2625 47.0795L74.0697 57.3689L68.0166 59.5108V26.4586C68.0166 25.7656 67.4391 25.1987 66.7333 25.1987C66.0275 25.1987 65.45 25.7656 65.45 26.4586V65.5165H26.95C26.2442 65.5165 25.6667 66.0835 25.6667 66.7764C25.6667 67.4694 26.2442 68.0364 26.95 68.0364H31.6128L33.5164 73.1811C33.7089 73.6851 34.1794 74 34.7142 74C34.8639 74 35.0136 73.979 35.1633 73.916L51.6328 68.0364H66.7333C67.4391 68.0364 68.0166 67.4694 68.0166 66.7764V62.1777L76.1658 59.2798C76.4866 59.1748 76.7433 58.9229 76.893 58.6289C77.0214 58.3139 77.0427 57.9779 76.9144 57.6629ZM35.4842 71.1232L34.3292 68.0364H44.1253L35.4842 71.1232Z" fill="#FFC700"/>
<path d="M21.8167 41.6408V45.2106C21.8167 45.9035 22.3942 46.4705 23.1 46.4705C23.8058 46.4705 24.3833 45.9035 24.3833 45.2106V10.0795H65.45V21.4189C65.45 22.1118 66.0275 22.6788 66.7333 22.6788C67.4392 22.6788 68.0167 22.1118 68.0167 21.4189V8.81954C68.0167 8.12658 67.4392 7.55961 66.7333 7.55961H58.3489L55.8464 0.83997C55.7394 0.524987 55.4828 0.273001 55.1833 0.126009C54.8839 -0.0209831 54.5203 -0.041982 54.1994 0.0840112L33.2597 7.55961H23.1C22.3942 7.55961 21.8167 8.12658 21.8167 8.81954V34.2702L15.2931 16.6731L18.9078 15.3712C19.2286 15.2662 19.4853 15.0142 19.635 14.7202C19.7847 14.4262 19.8061 14.0693 19.6778 13.7543C19.5708 13.4393 19.3142 13.1873 19.0147 13.0403C18.6939 12.8933 18.3517 12.8933 18.0308 12.9983L13.2183 14.7202C12.8975 14.8252 12.6408 15.0772 12.4911 15.3712C12.3414 15.6652 12.3414 16.0222 12.4483 16.3371L21.8167 41.6408ZM53.8786 2.87686L55.6111 7.55961H40.7672L53.8786 2.87686Z" fill="#FFC700"/>
<path d="M60.3167 16.3792H37.2167C36.5108 16.3792 35.9333 16.9461 35.9333 17.6391C35.9333 18.332 36.5108 18.899 37.2167 18.899H60.3167C61.0225 18.899 61.6 18.332 61.6 17.6391C61.6 16.9461 61.0225 16.3792 60.3167 16.3792Z" fill="#FFC700"/>
<path d="M61.6 22.6788C61.6 21.9859 61.0225 21.4189 60.3167 21.4189H47.4833C46.7775 21.4189 46.2 21.9859 46.2 22.6788V35.2781C46.2 35.9711 46.7775 36.5381 47.4833 36.5381H60.3167C61.0225 36.5381 61.6 35.9711 61.6 35.2781V22.6788ZM59.0333 34.0182H48.7667V23.9387H59.0333V34.0182Z" fill="#FFC700"/>
<path d="M41.0666 23.9387H33.3666C32.6608 23.9387 32.0833 24.5057 32.0833 25.1987C32.0833 25.8916 32.6608 26.4586 33.3666 26.4586H41.0666C41.7725 26.4586 42.35 25.8916 42.35 25.1987C42.35 24.5057 41.7725 23.9387 41.0666 23.9387Z" fill="#FFC700"/>
<path d="M41.0667 28.9785H29.5167C28.8108 28.9785 28.2333 29.5454 28.2333 30.2384C28.2333 30.9313 28.8108 31.4983 29.5167 31.4983H41.0667C41.7725 31.4983 42.35 30.9313 42.35 30.2384C42.35 29.5454 41.7725 28.9785 41.0667 28.9785Z" fill="#FFC700"/>
<path d="M41.0667 34.0182H29.5167C28.8108 34.0182 28.2333 34.5852 28.2333 35.2781C28.2333 35.9711 28.8108 36.5381 29.5167 36.5381H41.0667C41.7725 36.5381 42.35 35.9711 42.35 35.2781C42.35 34.5852 41.7725 34.0182 41.0667 34.0182Z" fill="#FFC700"/>
<path d="M41.0667 39.0579H29.5167C28.8108 39.0579 28.2333 39.6249 28.2333 40.3179C28.2333 41.0108 28.8108 41.5778 29.5167 41.5778H41.0667C41.7725 41.5778 42.35 41.0108 42.35 40.3179C42.35 39.6249 41.7725 39.0579 41.0667 39.0579Z" fill="#FFC700"/>
<path d="M60.3167 39.0579H48.7667C48.0608 39.0579 47.4833 39.6249 47.4833 40.3179C47.4833 41.0108 48.0608 41.5778 48.7667 41.5778H60.3167C61.0225 41.5778 61.6 41.0108 61.6 40.3179C61.6 39.6249 61.0225 39.0579 60.3167 39.0579Z" fill="#FFC700"/>
<path d="M60.3167 44.0977H50.05C49.3442 44.0977 48.7667 44.6646 48.7667 45.3576C48.7667 46.0506 49.3442 46.6175 50.05 46.6175H60.3167C61.0225 46.6175 61.6 46.0506 61.6 45.3576C61.6 44.6646 61.0225 44.0977 60.3167 44.0977Z" fill="#FFC700"/>
<path d="M60.3167 49.1373H46.2C45.4942 49.1373 44.9167 49.7043 44.9167 50.3973C44.9167 51.0902 45.4942 51.6572 46.2 51.6572H60.3167C61.0225 51.6572 61.6 51.0902 61.6 50.3973C61.6 49.7043 61.0225 49.1373 60.3167 49.1373Z" fill="#FFC700"/>
<path d="M61.6 55.437C61.6 54.744 61.0225 54.1771 60.3167 54.1771H42.35C41.6442 54.1771 41.0667 54.744 41.0667 55.437C41.0667 56.13 41.6442 56.6969 42.35 56.6969H60.3167C61.0225 56.6969 61.6 56.13 61.6 55.437Z" fill="#FFC700"/>
<path d="M37.2167 59.2168C36.5108 59.2168 35.9333 59.7838 35.9333 60.4767C35.9333 61.1697 36.5108 61.7367 37.2167 61.7367H50.05C50.7558 61.7367 51.3333 61.1697 51.3333 60.4767C51.3333 59.7838 50.7558 59.2168 50.05 59.2168H37.2167Z" fill="#FFC700"/>
<path d="M36.6606 56.8229L43.6333 48.5074C43.9756 48.1084 44.0183 47.5414 43.7617 47.0795L45.9861 45.8195C46.6064 45.4625 46.8203 44.7066 46.4567 44.0976C46.0931 43.4887 45.3231 43.2787 44.7028 43.6356L42.4783 44.8956C42.2003 44.4336 41.687 44.2026 41.1522 44.2866L30.3295 46.0505C30.1797 46.0715 30.03 46.1345 29.9017 46.1975L3.20834 61.3167C0.128335 63.0596 -0.919721 66.9024 0.855557 69.9262C2.63084 72.9501 6.545 73.979 9.625 72.2361L15.5069 68.8973C15.8064 68.7293 16.0203 68.4563 16.1058 68.1413C16.1914 67.8263 16.1486 67.4693 15.9775 67.1754C15.8064 66.8814 15.5283 66.6714 15.1861 66.5874C14.8653 66.5034 14.5017 66.5454 14.2022 66.7134L12.7692 67.5323L11.4858 65.3485L27.0356 56.5289C27.335 56.361 27.5489 56.088 27.6345 55.773C27.72 55.458 27.6772 55.101 27.5061 54.807C27.335 54.5131 27.0569 54.3031 26.7361 54.2191C26.4153 54.1351 26.0517 54.1771 25.7522 54.3451L10.2025 63.1646L8.91917 60.9807L30.03 49.0114L33.88 55.563L18.6511 64.1935C18.0522 64.5505 17.8383 65.3065 18.1806 65.9154C18.5228 66.5244 19.3142 66.7134 19.9344 66.3774L36.2756 57.1169C36.4253 57.0329 36.5536 56.9489 36.6606 56.8229ZM40.8742 47.2474L41.0667 47.5834L35.8478 53.8201L32.5753 48.2344L40.6817 46.9115L40.8742 47.2474ZM8.64112 65.5165L10.5661 68.7923L8.34167 70.0522C7.46473 70.5562 6.39528 70.6822 5.41139 70.4302C4.4275 70.1782 3.59334 69.5272 3.08 68.6663C2.56667 67.8053 2.43834 66.7554 2.695 65.7894C2.95167 64.8235 3.61472 64.0045 4.49167 63.5006L6.71611 62.2406L8.64112 65.5165Z" fill="#FFC700"/>
</g>
<defs>
<clipPath id="clip0">
<rect width="77" height="74" fill="white"/>
</clipPath>
</defs>
</svg>
